<svg width="1440" height="14" viewBox="0 0 1440 14" xmlns="http://www.w3.org/2000/svg"><title>uzor_small</title><g fill="#FFF" fill-rule="evenodd"><path d="M1429.15 11.29c-1.238.82-2.613 1.075-3.71 1.042-3.61-.11-6.234-4.486-9.125-7.425.155.88-.366 1.392-1.167 1.723-.296-3.195-3.113-5.158-6.357-4.444-1.758.387-3.604 1.863-3.517 4.134.21 5.446 7.892 4.01 6 .606-1.313-1.637-3.377-.31-2.62 1.202-2.152-1-.444-4.894 2.572-3.904 1.047.345 2.016 1.19 2.426 2.252.272.704.327 1.422.204 2.1 1.87-.84 5.37-.068 5.357 3.843-1.62-1.873-3.014-1.68-4.468-1.333-1.414.34-2.484.808-4.908 1.16-1.76.256-3.93-.608-4.907-2.285.233 1.103-.25 1.79-.927 2.36V5.97c0-2.754 2.204-4.917 4.716-5.25 8.12-1.077 9.184 6.267 15.654 9.564 1.366.696 2.794.735 4.78 1.006" filter="url(#a)"/><path d="M1414.85 1.742c1.238-.82 2.613-1.075 3.71-1.042 3.61.11 6.234 4.487 9.125 7.425-.155-.88.366-1.392 1.167-1.723.296 3.195 3.113 5.16 6.357 4.444 1.758-.387 3.604-1.862 3.517-4.134-.21-5.446-7.892-4.01-6-.606 1.313 1.637 3.377.31 2.62-1.2 2.152.997.444 4.893-2.572 3.902-1.048-.345-2.016-1.19-2.426-2.252-.272-.704-.327-1.422-.204-2.1-1.87.84-5.37.068-5.357-3.843 1.62 1.872 3.014 1.68 4.468 1.332 1.414-.34 2.484-.808 4.908-1.16 1.76-.255 3.93.608 4.907 2.285-.233-1.103.25-1.79.927-2.36V7.06c0 2.754-2.205 4.917-4.716 5.25-8.12 1.078-9.184-6.267-15.654-9.564-1.366-.696-2.794-.735-4.78-1.006M1393.15 1.742c-1.238-.82-2.613-1.075-3.71-1.042-3.61.11-6.234 4.487-9.125 7.425.155-.88-.366-1.392-1.167-1.723-.296 3.195-3.113 5.16-6.357 4.444-1.758-.387-3.604-1.862-3.517-4.134.21-5.446 7.892-4.01 6-.606-1.313 1.637-3.377.31-2.62-1.2-2.152.997-.444 4.893 2.572 3.902 1.047-.345 2.016-1.19 2.426-2.252.272-.704.327-1.422.204-2.1 1.87.84 5.37.068 5.357-3.843-1.62 1.872-3.014 1.68-4.468 1.332-1.414-.34-2.484-.808-4.908-1.16-1.76-.255-3.93.608-4.907 2.285.233-1.103-.25-1.79-.927-2.36V7.06c0 2.754 2.204 4.917 4.716 5.25 8.12 1.078 9.184-6.267 15.654-9.564 1.366-.696 2.794-.735 4.78-1.006" filter="url(#a)"/><path d="M1378.85 11.29c1.238.82 2.613 1.075 3.71 1.042 3.61-.11 6.234-4.486 9.125-7.425-.155.88.366 1.392 1.167 1.723.296-3.195 3.113-5.158 6.357-4.444 1.758.387 3.604 1.863 3.517 4.134-.21 5.446-7.892 4.01-6 .606 1.313-1.637 3.377-.31 2.62 1.202 2.152-1 .444-4.894-2.572-3.904-1.048.345-2.016 1.19-2.426 2.252-.272.704-.327 1.422-.204 2.1-1.87-.84-5.37-.068-5.357 3.843 1.62-1.873 3.014-1.68 4.468-1.333 1.414.34 2.484.808 4.908 1.16 1.76.256 3.93-.608 4.907-2.285-.233 1.103.25 1.79.927 2.36V5.97c0-2.754-2.205-4.917-4.716-5.25-8.12-1.077-9.184 6.267-15.654 9.564-1.366.696-2.794.735-4.78 1.006M1357.15 11.29c-1.238.82-2.613 1.075-3.71 1.042-3.61-.11-6.234-4.486-9.125-7.425.155.88-.366 1.392-1.167 1.723-.296-3.195-3.113-5.158-6.357-4.444-1.758.387-3.604 1.863-3.517 4.134.21 5.446 7.892 4.01 6 .606-1.313-1.637-3.377-.31-2.62 1.202-2.152-1-.444-4.894 2.572-3.904 1.047.345 2.016 1.19 2.426 2.252.272.704.327 1.422.204 2.1 1.87-.84 5.37-.068 5.357 3.843-1.62-1.873-3.014-1.68-4.468-1.333-1.414.34-2.484.808-4.908 1.16-1.76.256-3.93-.608-4.907-2.285.233 1.103-.25 1.79-.927 2.36V5.97c0-2.754 2.204-4.917 4.716-5.25 8.12-1.077 9.184 6.267 15.654 9.564 1.366.696 2.794.735 4.78 1.006" filter="url(#a)"/><path d="M1342.85 1.742c1.238-.82 2.613-1.075 3.71-1.042 3.61.11 6.234 4.487 9.125 7.425-.155-.88.366-1.392 1.167-1.723.296 3.195 3.113 5.16 6.357 4.444 1.758-.387 3.604-1.862 3.517-4.134-.21-5.446-7.892-4.01-6-.606 1.313 1.637 3.377.31 2.62-1.2 2.152.997.444 4.893-2.572 3.902-1.048-.345-2.016-1.19-2.426-2.252-.272-.704-.327-1.422-.204-2.1-1.87.84-5.37.068-5.357-3.843 1.62 1.872 3.014 1.68 4.468 1.332 1.414-.34 2.484-.808 4.908-1.16 1.76-.255 3.93.608 4.907 2.285-.233-1.103.25-1.79.927-2.36V7.06c0 2.754-2.205 4.917-4.716 5.25-8.12 1.078-9.184-6.267-15.654-9.564-1.366-.696-2.794-.735-4.78-1.006M1321.15 1.742c-1.238-.82-2.613-1.075-3.71-1.042-3.61.11-6.234 4.487-9.125 7.425.155-.88-.366-1.392-1.167-1.723-.296 3.195-3.113 5.16-6.357 4.444-1.758-.387-3.604-1.862-3.517-4.134.21-5.446 7.892-4.01 6-.606-1.313 1.637-3.377.31-2.62-1.2-2.152.997-.444 4.893 2.572 3.902 1.047-.345 2.016-1.19 2.426-2.252.272-.704.327-1.422.204-2.1 1.87.84 5.37.068 5.357-3.843-1.62 1.872-3.014 1.68-4.468 1.332-1.414-.34-2.484-.808-4.908-1.16-1.76-.255-3.93.608-4.907 2.285.233-1.103-.25-1.79-.927-2.36V7.06c0 2.754 2.204 4.917 4.716 5.25 8.12 1.078 9.184-6.267 15.654-9.564 1.366-.696 2.794-.735 4.78-1.006" filter="url(#a)"/><path d="M1306.85 11.29c1.238.82 2.613 1.075 3.71 1.042 3.61-.11 6.234-4.486 9.125-7.425-.155.88.366 1.392 1.167 1.723.296-3.195 3.113-5.158 6.357-4.444 1.758.387 3.604 1.863 3.517 4.134-.21 5.446-7.892 4.01-6 .606 1.313-1.637 3.377-.31 2.62 1.202 2.152-1 .444-4.894-2.572-3.904-1.048.345-2.016 1.19-2.426 2.252-.272.704-.327 1.422-.204 2.1-1.87-.84-5.37-.068-5.357 3.843 1.62-1.873 3.014-1.68 4.468-1.333 1.414.34 2.484.808 4.908 1.16 1.76.256 3.93-.608 4.907-2.285-.233 1.103.25 1.79.927 2.36V5.97c0-2.754-2.205-4.917-4.716-5.25-8.12-1.077-9.184 6.267-15.654 9.564-1.366.696-2.794.735-4.78 1.006M1285.15 11.29c-1.238.82-2.613 1.075-3.71 1.042-3.61-.11-6.234-4.486-9.125-7.425.155.88-.366 1.392-1.167 1.723-.296-3.195-3.113-5.158-6.357-4.444-1.758.387-3.604 1.863-3.517 4.134.21 5.446 7.892 4.01 6 .606-1.313-1.637-3.377-.31-2.62 1.202-2.152-1-.444-4.894 2.572-3.904 1.047.345 2.016 1.19 2.426 2.252.272.704.327 1.422.204 2.1 1.87-.84 5.37-.068 5.357 3.843-1.62-1.873-3.014-1.68-4.468-1.333-1.414.34-2.484.808-4.908 1.16-1.76.256-3.93-.608-4.907-2.285.233 1.103-.25 1.79-.927 2.36V5.97c0-2.754 2.204-4.917 4.716-5.25 8.12-1.077 9.184 6.267 15.654 9.564 1.366.696 2.794.735 4.78 1.006" filter="url(#a)"/><path d="M1270.85 1.742c1.238-.82 2.613-1.075 3.71-1.042 3.61.11 6.234 4.487 9.125 7.425-.155-.88.366-1.392 1.167-1.723.296 3.195 3.113 5.16 6.357 4.444 1.758-.387 3.604-1.862 3.517-4.134-.21-5.446-7.892-4.01-6-.606 1.313 1.637 3.377.31 2.62-1.2 2.152.997.444 4.893-2.572 3.902-1.048-.345-2.016-1.19-2.426-2.252-.272-.704-.327-1.422-.204-2.1-1.87.84-5.37.068-5.357-3.843 1.62 1.872 3.014 1.68 4.468 1.332 1.414-.34 2.484-.808 4.908-1.16 1.76-.255 3.93.608 4.907 2.285-.233-1.103.25-1.79.927-2.36V7.06c0 2.754-2.205 4.917-4.716 5.25-8.12 1.078-9.184-6.267-15.654-9.564-1.366-.696-2.794-.735-4.78-1.006M1249.15 1.742c-1.238-.82-2.613-1.075-3.71-1.042-3.61.11-6.234 4.487-9.125 7.425.155-.88-.366-1.392-1.167-1.723-.296 3.195-3.113 5.16-6.357 4.444-1.758-.387-3.604-1.862-3.517-4.134.21-5.446 7.892-4.01 6-.606-1.313 1.637-3.377.31-2.62-1.2-2.152.997-.444 4.893 2.572 3.902 1.047-.345 2.016-1.19 2.426-2.252.272-.704.327-1.422.204-2.1 1.87.84 5.37.068 5.357-3.843-1.62 1.872-3.014 1.68-4.468 1.332-1.414-.34-2.484-.808-4.908-1.16-1.76-.255-3.93.608-4.907 2.285.233-1.103-.25-1.79-.927-2.36V7.06c0 2.754 2.204 4.917 4.716 5.25 8.12 1.078 9.184-6.267 15.654-9.564 1.366-.696 2.794-.735 4.78-1.006" filter="url(#a)"/><path d="M1234.85 11.29c1.238.82 2.613 1.075 3.71 1.042 3.61-.11 6.234-4.486 9.125-7.425-.155.88.366 1.392 1.167 1.723.296-3.195 3.113-5.158 6.357-4.444 1.758.387 3.604 1.863 3.517 4.134-.21 5.446-7.892 4.01-6 .606 1.313-1.637 3.377-.31 2.62 1.202 2.152-1 .444-4.894-2.572-3.904-1.048.345-2.016 1.19-2.426 2.252-.272.704-.327 1.422-.204 2.1-1.87-.84-5.37-.068-5.357 3.843 1.62-1.873 3.014-1.68 4.468-1.333 1.414.34 2.484.808 4.908 1.16 1.76.256 3.93-.608 4.907-2.285-.233 1.103.25 1.79.927 2.36V5.97c0-2.754-2.205-4.917-4.716-5.25-8.12-1.077-9.184 6.267-15.654 9.564-1.366.696-2.794.735-4.78 1.006M1213.15 11.29c-1.238.82-2.613 1.075-3.71 1.042-3.61-.11-6.234-4.486-9.125-7.425.155.88-.366 1.392-1.167 1.723-.296-3.195-3.113-5.158-6.357-4.444-1.758.387-3.604 1.863-3.517 4.134.21 5.446 7.892 4.01 6 .606-1.313-1.637-3.377-.31-2.62 1.202-2.152-1-.444-4.894 2.572-3.904 1.047.345 2.016 1.19 2.426 2.252.272.704.327 1.422.204 2.1 1.87-.84 5.37-.068 5.357 3.843-1.62-1.873-3.014-1.68-4.468-1.333-1.414.34-2.484.808-4.908 1.16-1.76.256-3.93-.608-4.907-2.285.233 1.103-.25 1.79-.927 2.36V5.97c0-2.754 2.204-4.917 4.716-5.25 8.12-1.077 9.184 6.267 15.654 9.564 1.366.696 2.794.735 4.78 1.006" filter="url(#a)"/><path d="M1198.85 1.742c1.238-.82 2.613-1.075 3.71-1.042 3.61.11 6.234 4.487 9.125 7.425-.155-.88.366-1.392 1.167-1.723.296 3.195 3.113 5.16 6.357 4.444 1.758-.387 3.604-1.862 3.517-4.134-.21-5.446-7.892-4.01-6-.606 1.313 1.637 3.377.31 2.62-1.2 2.152.997.444 4.893-2.572 3.902-1.048-.345-2.016-1.19-2.426-2.252-.272-.704-.327-1.422-.204-2.1-1.87.84-5.37.068-5.357-3.843 1.62 1.872 3.014 1.68 4.468 1.332 1.414-.34 2.484-.808 4.908-1.16 1.76-.255 3.93.608 4.907 2.285-.233-1.103.25-1.79.927-2.36V7.06c0 2.754-2.204 4.917-4.716 5.25-8.12 1.078-9.184-6.267-15.654-9.564-1.366-.696-2.794-.735-4.78-1.006M1177.15 1.742c-1.238-.82-2.613-1.075-3.71-1.042-3.61.11-6.234 4.487-9.125 7.425.155-.88-.366-1.392-1.167-1.723-.296 3.195-3.113 5.16-6.357 4.444-1.758-.387-3.604-1.862-3.517-4.134.21-5.446 7.892-4.01 6-.606-1.313 1.637-3.377.31-2.62-1.2-2.152.997-.444 4.893 2.572 3.902 1.047-.345 2.016-1.19 2.426-2.252.272-.704.327-1.422.204-2.1 1.87.84 5.37.068 5.357-3.843-1.62 1.872-3.014 1.68-4.468 1.332-1.414-.34-2.484-.808-4.908-1.16-1.76-.255-3.93.608-4.907 2.285.233-1.103-.25-1.79-.927-2.36V7.06c0 2.754 2.204 4.917 4.716 5.25 8.12 1.078 9.184-6.267 15.654-9.564 1.366-.696 2.794-.735 4.78-1.006" filter="url(#a)"/><path d="M1162.85 11.29c1.238.82 2.613 1.075 3.71 1.042 3.61-.11 6.234-4.486 9.125-7.425-.155.88.366 1.392 1.167 1.723.296-3.195 3.113-5.158 6.357-4.444 1.758.387 3.604 1.863 3.517 4.134-.21 5.446-7.892 4.01-6 .606 1.313-1.637 3.377-.31 2.62 1.202 2.152-1 .444-4.894-2.572-3.904-1.048.345-2.016 1.19-2.426 2.252-.272.704-.327 1.422-.204 2.1-1.87-.84-5.37-.068-5.357 3.843 1.62-1.873 3.014-1.68 4.468-1.333 1.414.34 2.484.808 4.908 1.16 1.76.256 3.93-.608 4.907-2.285-.233 1.103.25 1.79.927 2.36V5.97c0-2.754-2.204-4.917-4.716-5.25-8.12-1.077-9.184 6.267-15.654 9.564-1.366.696-2.794.735-4.78 1.006M1141.15 11.29c-1.238.82-2.613 1.075-3.71 1.042-3.61-.11-6.234-4.486-9.125-7.425.155.88-.366 1.392-1.167 1.723-.296-3.195-3.113-5.158-6.357-4.444-1.758.387-3.604 1.863-3.517 4.134.21 5.446 7.892 4.01 6 .606-1.313-1.637-3.377-.31-2.62 1.202-2.152-1-.444-4.894 2.572-3.904 1.047.345 2.016 1.19 2.426 2.252.272.704.327 1.422.204 2.1 1.87-.84 5.37-.068 5.357 3.843-1.62-1.873-3.014-1.68-4.468-1.333-1.414.34-2.484.808-4.908 1.16-1.76.256-3.93-.608-4.907-2.285.233 1.103-.25 1.79-.927 2.36V5.97c0-2.754 2.204-4.917 4.716-5.25 8.12-1.077 9.184 6.267 15.654 9.564 1.366.696 2.794.735 4.78 1.006" filter="url(#a)"/><path d="M1126.85 1.742c1.238-.82 2.613-1.075 3.71-1.042 3.61.11 6.234 4.487 9.125 7.425-.155-.88.366-1.392 1.167-1.723.296 3.195 3.113 5.16 6.357 4.444 1.758-.387 3.604-1.862 3.517-4.134-.21-5.446-7.892-4.01-6-.606 1.313 1.637 3.377.31 2.62-1.2 2.152.997.444 4.893-2.572 3.902-1.048-.345-2.016-1.19-2.426-2.252-.272-.704-.327-1.422-.204-2.1-1.87.84-5.37.068-5.357-3.843 1.62 1.872 3.014 1.68 4.468 1.332 1.414-.34 2.484-.808 4.908-1.16 1.76-.255 3.93.608 4.907 2.285-.233-1.103.25-1.79.927-2.36V7.06c0 2.754-2.205 4.917-4.716 5.25-8.12 1.078-9.184-6.267-15.654-9.564-1.366-.696-2.794-.735-4.78-1.006M1105.15 1.742c-1.238-.82-2.613-1.075-3.71-1.042-3.61.11-6.234 4.487-9.125 7.425.155-.88-.366-1.392-1.167-1.723-.296 3.195-3.113 5.16-6.357 4.444-1.758-.387-3.604-1.862-3.517-4.134.21-5.446 7.892-4.01 6-.606-1.313 1.637-3.377.31-2.62-1.2-2.152.997-.444 4.893 2.572 3.902 1.047-.345 2.016-1.19 2.426-2.252.272-.704.327-1.422.204-2.1 1.87.84 5.37.068 5.357-3.843-1.62 1.872-3.014 1.68-4.468 1.332-1.414-.34-2.484-.808-4.908-1.16-1.76-.255-3.93.608-4.907 2.285.233-1.103-.25-1.79-.927-2.36V7.06c0 2.754 2.204 4.917 4.716 5.25 8.12 1.078 9.184-6.267 15.654-9.564 1.366-.696 2.794-.735 4.78-1.006" filter="url(#a)"/><path d="M1090.85 11.29c1.238.82 2.613 1.075 3.71 1.042 3.61-.11 6.234-4.486 9.125-7.425-.155.88.366 1.392 1.167 1.723.296-3.195 3.113-5.158 6.357-4.444 1.758.387 3.604 1.863 3.517 4.134-.21 5.446-7.892 4.01-6 .606 1.313-1.637 3.377-.31 2.62 1.202 2.152-1 .444-4.894-2.572-3.904-1.048.345-2.016 1.19-2.426 2.252-.272.704-.327 1.422-.204 2.1-1.87-.84-5.37-.068-5.357 3.843 1.62-1.873 3.014-1.68 4.468-1.333 1.414.34 2.484.808 4.908 1.16 1.76.256 3.93-.608 4.907-2.285-.233 1.103.25 1.79.927 2.36V5.97c0-2.754-2.205-4.917-4.716-5.25-8.12-1.077-9.184 6.267-15.654 9.564-1.366.696-2.794.735-4.78 1.006M1069.15 11.29c-1.238.82-2.613 1.075-3.71 1.042-3.61-.11-6.234-4.486-9.125-7.425.155.88-.366 1.392-1.167 1.723-.296-3.195-3.113-5.158-6.357-4.444-1.758.387-3.604 1.863-3.517 4.134.21 5.446 7.892 4.01 6 .606-1.313-1.637-3.377-.31-2.62 1.202-2.152-1-.444-4.894 2.572-3.904 1.047.345 2.016 1.19 2.426 2.252.272.704.327 1.422.204 2.1 1.87-.84 5.37-.068 5.357 3.843-1.62-1.873-3.014-1.68-4.468-1.333-1.414.34-2.484.808-4.908 1.16-1.76.256-3.93-.608-4.907-2.285.233 1.103-.25 1.79-.927 2.36V5.97c0-2.754 2.204-4.917 4.716-5.25 8.12-1.077 9.184 6.267 15.654 9.564 1.366.696 2.794.735 4.78 1.006" filter="url(#a)"/><path d="M1054.85 1.742c1.238-.82 2.613-1.075 3.71-1.042 3.61.11 6.234 4.487 9.125 7.425-.155-.88.366-1.392 1.167-1.723.296 3.195 3.113 5.16 6.357 4.444 1.758-.387 3.604-1.862 3.517-4.134-.21-5.446-7.892-4.01-6-.606 1.313 1.637 3.377.31 2.62-1.2 2.152.997.444 4.893-2.572 3.902-1.048-.345-2.016-1.19-2.426-2.252-.272-.704-.327-1.422-.204-2.1-1.87.84-5.37.068-5.357-3.843 1.62 1.872 3.014 1.68 4.468 1.332 1.414-.34 2.484-.808 4.908-1.16 1.76-.255 3.93.608 4.907 2.285-.233-1.103.25-1.79.927-2.36V7.06c0 2.754-2.205 4.917-4.716 5.25-8.12 1.078-9.184-6.267-15.654-9.564-1.366-.696-2.794-.735-4.78-1.006M1033.15 1.742c-1.238-.82-2.613-1.075-3.71-1.042-3.61.11-6.234 4.487-9.125 7.425.155-.88-.366-1.392-1.167-1.723-.296 3.195-3.113 5.16-6.357 4.444-1.758-.387-3.604-1.862-3.517-4.134.21-5.446 7.892-4.01 6-.606-1.313 1.637-3.377.31-2.62-1.2-2.152.997-.444 4.893 2.572 3.902 1.048-.345 2.016-1.19 2.426-2.252.272-.704.327-1.422.204-2.1 1.87.84 5.37.068 5.357-3.843-1.62 1.872-3.014 1.68-4.468 1.332-1.414-.34-2.484-.808-4.908-1.16-1.76-.255-3.93.608-4.907 2.285.233-1.103-.25-1.79-.927-2.36V7.06c0 2.754 2.205 4.917 4.716 5.25 8.12 1.078 9.184-6.267 15.654-9.564 1.366-.696 2.794-.735 4.78-1.006" filter="url(#a)"/><path d="M1018.85 11.29c1.238.82 2.613 1.075 3.71 1.042 3.61-.11 6.234-4.486 9.125-7.425-.155.88.366 1.392 1.167 1.723.296-3.195 3.113-5.158 6.357-4.444 1.758.387 3.604 1.863 3.517 4.134-.21 5.446-7.892 4.01-6 .606 1.313-1.637 3.377-.31 2.62 1.202 2.152-1 .444-4.894-2.572-3.904-1.048.345-2.016 1.19-2.426 2.252-.272.704-.327 1.422-.204 2.1-1.87-.84-5.37-.068-5.357 3.843 1.62-1.873 3.014-1.68 4.468-1.333 1.414.34 2.484.808 4.908 1.16 1.76.256 3.93-.608 4.907-2.285-.233 1.103.25 1.79.927 2.36V5.97c0-2.754-2.205-4.917-4.716-5.25-8.12-1.077-9.184 6.267-15.654 9.564-1.366.696-2.794.735-4.78 1.006M997.15 11.29c-1.238.82-2.613 1.075-3.71 1.042-3.61-.11-6.234-4.486-9.125-7.425.155.88-.366 1.392-1.167 1.723-.296-3.195-3.113-5.158-6.357-4.444-1.758.387-3.604 1.863-3.517 4.134.21 5.446 7.892 4.01 6 .606-1.313-1.637-3.377-.31-2.62 1.202-2.152-1-.444-4.894 2.572-3.904 1.048.345 2.016 1.19 2.426 2.252.272.704.327 1.422.204 2.1 1.87-.84 5.37-.068 5.357 3.843-1.62-1.873-3.014-1.68-4.468-1.333-1.414.34-2.484.808-4.908 1.16-1.76.256-3.93-.608-4.907-2.285.233 1.103-.25 1.79-.927 2.36V5.97c0-2.754 2.204-4.917 4.716-5.25 8.12-1.077 9.184 6.267 15.654 9.564 1.366.696 2.794.735 4.78 1.006" filter="url(#a)"/><path d="M982.85 1.742C984.09.922 985.464.667 986.56.7c3.61.11 6.234 4.487 9.125 7.425-.155-.88.366-1.392 1.167-1.723.296 3.195 3.113 5.16 6.357 4.444 1.758-.387 3.604-1.862 3.517-4.134-.21-5.446-7.892-4.01-6-.606 1.313 1.637 3.377.31 2.62-1.2 2.152.997.444 4.893-2.572 3.902-1.048-.345-2.016-1.19-2.426-2.252-.272-.704-.327-1.422-.204-2.1-1.87.84-5.37.068-5.357-3.843 1.62 1.872 3.014 1.68 4.468 1.332 1.414-.34 2.484-.808 4.908-1.16 1.76-.255 3.93.608 4.907 2.285-.233-1.103.25-1.79.927-2.36V7.06c0 2.754-2.205 4.917-4.716 5.25-8.12 1.078-9.184-6.267-15.654-9.564-1.366-.696-2.794-.735-4.78-1.006M961.15 1.742C959.91.922 958.536.667 957.44.7c-3.61.11-6.234 4.487-9.125 7.425.155-.88-.366-1.392-1.167-1.723-.296 3.195-3.113 5.16-6.357 4.444-1.758-.387-3.604-1.862-3.517-4.134.21-5.446 7.892-4.01 6-.606-1.313 1.637-3.377.31-2.62-1.2-2.152.997-.444 4.893 2.572 3.902 1.048-.345 2.016-1.19 2.426-2.252.272-.704.327-1.422.204-2.1 1.87.84 5.37.068 5.357-3.843-1.62 1.872-3.014 1.68-4.468 1.332-1.414-.34-2.484-.808-4.908-1.16-1.76-.255-3.93.608-4.907 2.285.233-1.103-.25-1.79-.927-2.36V7.06c0 2.754 2.204 4.917 4.716 5.25 8.12 1.078 9.184-6.267 15.654-9.564 1.366-.696 2.794-.735 4.78-1.006" filter="url(#a)"/><path d="M946.85 11.29c1.238.82 2.613 1.075 3.71 1.042 3.61-.11 6.234-4.486 9.125-7.425-.155.88.366 1.392 1.167 1.723.296-3.195 3.113-5.158 6.357-4.444 1.757.387 3.604 1.863 3.517 4.134-.21 5.446-7.892 4.01-6 .606 1.313-1.637 3.377-.31 2.62 1.202 2.152-1 .444-4.894-2.572-3.904-1.048.345-2.016 1.19-2.426 2.252-.272.704-.327 1.422-.204 2.1-1.87-.84-5.37-.068-5.357 3.843 1.62-1.873 3.014-1.68 4.468-1.333 1.414.34 2.484.808 4.908 1.16 1.76.256 3.93-.608 4.907-2.285-.233 1.103.25 1.79.927 2.36V5.97c0-2.754-2.205-4.917-4.716-5.25-8.12-1.077-9.184 6.267-15.654 9.564-1.366.696-2.794.735-4.78 1.006M925.15 11.29c-1.238.82-2.613 1.075-3.71 1.042-3.61-.11-6.234-4.486-9.125-7.425.155.88-.366 1.392-1.167 1.723-.296-3.195-3.113-5.158-6.357-4.444-1.758.387-3.604 1.863-3.517 4.134.21 5.446 7.892 4.01 6 .606-1.313-1.637-3.377-.31-2.62 1.202-2.152-1-.444-4.894 2.572-3.904 1.048.345 2.016 1.19 2.426 2.252.272.704.327 1.422.204 2.1 1.87-.84 5.37-.068 5.357 3.843-1.62-1.873-3.014-1.68-4.468-1.333-1.414.34-2.484.808-4.908 1.16-1.76.256-3.93-.608-4.907-2.285.233 1.103-.25 1.79-.927 2.36V5.97c0-2.754 2.204-4.917 4.716-5.25 8.12-1.077 9.184 6.267 15.654 9.564 1.366.696 2.794.735 4.78 1.006" filter="url(#a)"/><path d="M910.85 1.742C912.09.922 913.464.667 914.56.7c3.61.11 6.234 4.487 9.125 7.425-.155-.88.366-1.392 1.167-1.723.296 3.195 3.113 5.16 6.357 4.444 1.757-.387 3.604-1.862 3.517-4.134-.21-5.446-7.892-4.01-6-.606 1.313 1.637 3.377.31 2.62-1.2 2.152.997.444 4.893-2.572 3.902-1.048-.345-2.016-1.19-2.426-2.252-.272-.704-.327-1.422-.204-2.1-1.87.84-5.37.068-5.357-3.843 1.62 1.872 3.014 1.68 4.468 1.332 1.414-.34 2.484-.808 4.908-1.16 1.76-.255 3.93.608 4.907 2.285-.233-1.103.25-1.79.927-2.36V7.06c0 2.754-2.205 4.917-4.716 5.25-8.12 1.078-9.184-6.267-15.654-9.564-1.366-.696-2.794-.735-4.78-1.006M889.15 1.742C887.91.922 886.536.667 885.44.7c-3.61.11-6.234 4.487-9.125 7.425.155-.88-.366-1.392-1.167-1.723-.296 3.195-3.113 5.16-6.357 4.444-1.758-.387-3.604-1.862-3.517-4.134.21-5.446 7.892-4.01 6-.606-1.313 1.637-3.377.31-2.62-1.2-2.152.997-.444 4.893 2.572 3.902 1.048-.345 2.016-1.19 2.426-2.252.272-.704.327-1.422.204-2.1 1.87.84 5.37.068 5.357-3.843-1.62 1.872-3.014 1.68-4.468 1.332-1.414-.34-2.484-.808-4.908-1.16-1.76-.255-3.93.608-4.907 2.285.233-1.103-.25-1.79-.927-2.36V7.06c0 2.754 2.204 4.917 4.716 5.25 8.12 1.078 9.184-6.267 15.654-9.564 1.366-.696 2.794-.735 4.78-1.006" filter="url(#a)"/><path d="M874.85 11.29c1.238.82 2.613 1.075 3.71 1.042 3.61-.11 6.234-4.486 9.125-7.425-.155.88.366 1.392 1.167 1.723.296-3.195 3.113-5.158 6.357-4.444 1.757.387 3.604 1.863 3.517 4.134-.21 5.446-7.892 4.01-6 .606 1.313-1.637 3.377-.31 2.62 1.202 2.152-1 .444-4.894-2.572-3.904-1.048.345-2.016 1.19-2.426 2.252-.272.704-.327 1.422-.204 2.1-1.87-.84-5.37-.068-5.357 3.843 1.62-1.873 3.014-1.68 4.468-1.333 1.414.34 2.484.808 4.908 1.16 1.76.256 3.93-.608 4.907-2.285-.233 1.103.25 1.79.927 2.36V5.97c0-2.754-2.205-4.917-4.716-5.25-8.12-1.077-9.184 6.267-15.654 9.564-1.366.696-2.794.735-4.78 1.006M853.15 11.29c-1.238.82-2.613 1.075-3.71 1.042-3.61-.11-6.234-4.486-9.125-7.425.155.88-.366 1.392-1.167 1.723-.296-3.195-3.113-5.158-6.357-4.444-1.758.387-3.604 1.863-3.517 4.134.21 5.446 7.892 4.01 6 .606-1.313-1.637-3.377-.31-2.62 1.202-2.152-1-.444-4.894 2.572-3.904 1.048.345 2.016 1.19 2.426 2.252.272.704.327 1.422.204 2.1 1.87-.84 5.37-.068 5.357 3.843-1.62-1.873-3.014-1.68-4.468-1.333-1.414.34-2.484.808-4.908 1.16-1.76.256-3.93-.608-4.907-2.285.233 1.103-.25 1.79-.927 2.36V5.97c0-2.754 2.204-4.917 4.716-5.25 8.12-1.077 9.184 6.267 15.654 9.564 1.366.696 2.794.735 4.78 1.006" filter="url(#a)"/><path d="M838.85 1.742C840.09.922 841.464.667 842.56.7c3.61.11 6.234 4.487 9.125 7.425-.155-.88.366-1.392 1.167-1.723.296 3.195 3.113 5.16 6.357 4.444 1.757-.387 3.604-1.862 3.517-4.134-.21-5.446-7.892-4.01-6-.606 1.313 1.637 3.377.31 2.62-1.2 2.152.997.444 4.893-2.572 3.902-1.048-.345-2.016-1.19-2.426-2.252-.272-.704-.327-1.422-.204-2.1-1.87.84-5.37.068-5.357-3.843 1.62 1.872 3.014 1.68 4.468 1.332 1.414-.34 2.484-.808 4.908-1.16 1.76-.255 3.93.608 4.907 2.285-.233-1.103.25-1.79.927-2.36V7.06c0 2.754-2.205 4.917-4.716 5.25-8.12 1.078-9.184-6.267-15.654-9.564-1.366-.696-2.794-.735-4.78-1.006M817.15 1.742C815.91.922 814.536.667 813.44.7c-3.61.11-6.234 4.487-9.125 7.425.155-.88-.366-1.392-1.167-1.723-.296 3.195-3.113 5.16-6.357 4.444-1.758-.387-3.604-1.862-3.517-4.134.21-5.446 7.892-4.01 6-.606-1.313 1.637-3.377.31-2.62-1.2-2.152.997-.444 4.893 2.572 3.902 1.048-.345 2.016-1.19 2.426-2.252.272-.704.327-1.422.204-2.1 1.87.84 5.37.068 5.357-3.843-1.62 1.872-3.014 1.68-4.468 1.332-1.414-.34-2.484-.808-4.908-1.16-1.76-.255-3.93.608-4.907 2.285.233-1.103-.25-1.79-.927-2.36V7.06c0 2.754 2.204 4.917 4.716 5.25 8.12 1.078 9.184-6.267 15.654-9.564 1.366-.696 2.794-.735 4.78-1.006" filter="url(#a)"/><path d="M802.85 11.29c1.238.82 2.613 1.075 3.71 1.042 3.61-.11 6.234-4.486 9.125-7.425-.155.88.366 1.392 1.167 1.723.296-3.195 3.113-5.158 6.357-4.444 1.757.387 3.604 1.863 3.517 4.134-.21 5.446-7.892 4.01-6 .606 1.313-1.637 3.377-.31 2.62 1.202 2.152-1 .444-4.894-2.572-3.904-1.048.345-2.016 1.19-2.426 2.252-.272.704-.327 1.422-.204 2.1-1.87-.84-5.37-.068-5.357 3.843 1.62-1.873 3.014-1.68 4.468-1.333 1.414.34 2.484.808 4.908 1.16 1.76.256 3.93-.608 4.907-2.285-.233 1.103.25 1.79.927 2.36V5.97c0-2.754-2.205-4.917-4.716-5.25-8.12-1.077-9.184 6.267-15.654 9.564-1.366.696-2.794.735-4.78 1.006M781.15 11.29c-1.238.82-2.613 1.075-3.71 1.042-3.61-.11-6.234-4.486-9.125-7.425.155.88-.366 1.392-1.167 1.723-.296-3.195-3.113-5.158-6.357-4.444-1.758.387-3.604 1.863-3.517 4.134.21 5.446 7.892 4.01 6 .606-1.313-1.637-3.377-.31-2.62 1.202-2.152-1-.444-4.894 2.572-3.904 1.048.345 2.016 1.19 2.426 2.252.272.704.327 1.422.204 2.1 1.87-.84 5.37-.068 5.357 3.843-1.62-1.873-3.014-1.68-4.468-1.333-1.414.34-2.484.808-4.908 1.16-1.76.256-3.93-.608-4.907-2.285.233 1.103-.25 1.79-.927 2.36V5.97c0-2.754 2.204-4.917 4.716-5.25 8.12-1.077 9.184 6.267 15.654 9.564 1.366.696 2.794.735 4.78 1.006" filter="url(#a)"/><path d="M766.85 1.742C768.09.922 769.464.667 770.56.7c3.61.11 6.234 4.487 9.125 7.425-.155-.88.366-1.392 1.167-1.723.296 3.195 3.113 5.16 6.357 4.444 1.757-.387 3.604-1.862 3.517-4.134-.21-5.446-7.892-4.01-6-.606 1.313 1.637 3.377.31 2.62-1.2 2.152.997.444 4.893-2.572 3.902-1.048-.345-2.016-1.19-2.426-2.252-.272-.704-.327-1.422-.204-2.1-1.87.84-5.37.068-5.357-3.843 1.62 1.872 3.014 1.68 4.468 1.332 1.414-.34 2.484-.808 4.908-1.16 1.76-.255 3.93.608 4.907 2.285-.233-1.103.25-1.79.927-2.36V7.06c0 2.754-2.205 4.917-4.716 5.25-8.12 1.078-9.184-6.267-15.654-9.564-1.366-.696-2.794-.735-4.78-1.006M745.15 1.742C743.91.922 742.536.667 741.44.7c-3.61.11-6.234 4.487-9.125 7.425.155-.88-.366-1.392-1.167-1.723-.296 3.195-3.113 5.16-6.357 4.444-1.758-.387-3.604-1.862-3.517-4.134.21-5.446 7.892-4.01 6-.606-1.313 1.637-3.377.31-2.62-1.2-2.152.997-.444 4.893 2.572 3.902 1.048-.345 2.016-1.19 2.426-2.252.272-.704.327-1.422.204-2.1 1.87.84 5.37.068 5.357-3.843-1.62 1.872-3.014 1.68-4.468 1.332-1.414-.34-2.484-.808-4.908-1.16-1.76-.255-3.93.608-4.907 2.285.233-1.103-.25-1.79-.927-2.36V7.06c0 2.754 2.204 4.917 4.716 5.25 8.12 1.078 9.184-6.267 15.654-9.564 1.366-.696 2.794-.735 4.78-1.006" filter="url(#a)"/><path d="M730.85 11.29c1.238.82 2.613 1.075 3.71 1.042 3.61-.11 6.234-4.486 9.125-7.425-.155.88.366 1.392 1.167 1.723.296-3.195 3.113-5.158 6.357-4.444 1.757.387 3.604 1.863 3.517 4.134-.21 5.446-7.892 4.01-6 .606 1.313-1.637 3.377-.31 2.62 1.202 2.152-1 .444-4.894-2.572-3.904-1.048.345-2.016 1.19-2.426 2.252-.272.704-.327 1.422-.204 2.1-1.87-.84-5.37-.068-5.357 3.843 1.62-1.873 3.014-1.68 4.468-1.333 1.414.34 2.484.808 4.908 1.16 1.76.256 3.93-.608 4.907-2.285-.233 1.103.25 1.79.927 2.36V5.97c0-2.754-2.205-4.917-4.716-5.25-8.12-1.077-9.184 6.267-15.654 9.564-1.366.696-2.794.735-4.78 1.006M709.15 11.29c-1.238.82-2.613 1.075-3.71 1.042-3.61-.11-6.234-4.486-9.125-7.425.155.88-.366 1.392-1.167 1.723-.296-3.195-3.113-5.158-6.357-4.444-1.758.387-3.604 1.863-3.517 4.134.21 5.446 7.892 4.01 6 .606-1.313-1.637-3.377-.31-2.62 1.202-2.152-1-.444-4.894 2.572-3.904 1.048.345 2.016 1.19 2.426 2.252.272.704.327 1.422.204 2.1 1.87-.84 5.37-.068 5.357 3.843-1.62-1.873-3.014-1.68-4.468-1.333-1.414.34-2.484.808-4.908 1.16-1.76.256-3.93-.608-4.907-2.285.233 1.103-.25 1.79-.927 2.36V5.97c0-2.754 2.205-4.917 4.716-5.25 8.12-1.077 9.184 6.267 15.654 9.564 1.366.696 2.794.735 4.78 1.006" filter="url(#a)"/><path d="M694.85 1.742C696.09.922 697.464.667 698.56.7c3.61.11 6.234 4.487 9.125 7.425-.155-.88.366-1.392 1.167-1.723.296 3.195 3.113 5.16 6.357 4.444 1.757-.387 3.604-1.862 3.517-4.134-.21-5.446-7.892-4.01-6-.606 1.313 1.637 3.377.31 2.62-1.2 2.152.997.444 4.893-2.572 3.902-1.048-.345-2.016-1.19-2.426-2.252-.272-.704-.327-1.422-.204-2.1-1.87.84-5.37.068-5.357-3.843 1.62 1.872 3.014 1.68 4.468 1.332 1.414-.34 2.484-.808 4.908-1.16 1.76-.255 3.93.608 4.907 2.285-.233-1.103.25-1.79.927-2.36V7.06c0 2.754-2.205 4.917-4.716 5.25-8.12 1.078-9.184-6.267-15.654-9.564-1.366-.696-2.794-.735-4.78-1.006M673.15 1.742C671.91.922 670.536.667 669.44.7c-3.61.11-6.234 4.487-9.125 7.425.155-.88-.366-1.392-1.167-1.723-.296 3.195-3.113 5.16-6.357 4.444-1.758-.387-3.604-1.862-3.517-4.134.21-5.446 7.892-4.01 6-.606-1.313 1.637-3.377.31-2.62-1.2-2.152.997-.444 4.893 2.572 3.902 1.048-.345 2.016-1.19 2.426-2.252.272-.704.327-1.422.204-2.1 1.87.84 5.37.068 5.357-3.843-1.62 1.872-3.014 1.68-4.468 1.332-1.414-.34-2.484-.808-4.908-1.16-1.76-.255-3.93.608-4.907 2.285.233-1.103-.25-1.79-.927-2.36V7.06c0 2.754 2.205 4.917 4.716 5.25 8.12 1.078 9.184-6.267 15.654-9.564 1.366-.696 2.794-.735 4.78-1.006" filter="url(#a)"/><path d="M658.85 11.29c1.238.82 2.613 1.075 3.71 1.042 3.61-.11 6.234-4.486 9.125-7.425-.155.88.366 1.392 1.167 1.723.296-3.195 3.113-5.158 6.357-4.444 1.757.387 3.604 1.863 3.517 4.134-.21 5.446-7.892 4.01-6 .606 1.313-1.637 3.377-.31 2.62 1.202 2.152-1 .444-4.894-2.572-3.904-1.048.345-2.016 1.19-2.426 2.252-.272.704-.327 1.422-.204 2.1-1.87-.84-5.37-.068-5.357 3.843 1.62-1.873 3.014-1.68 4.468-1.333 1.414.34 2.484.808 4.908 1.16 1.76.256 3.93-.608 4.907-2.285-.233 1.103.25 1.79.927 2.36V5.97c0-2.754-2.205-4.917-4.716-5.25-8.12-1.077-9.184 6.267-15.654 9.564-1.366.696-2.794.735-4.78 1.006M637.15 11.29c-1.238.82-2.613 1.075-3.71 1.042-3.61-.11-6.234-4.486-9.125-7.425.155.88-.366 1.392-1.167 1.723-.296-3.195-3.113-5.158-6.357-4.444-1.758.387-3.604 1.863-3.517 4.134.21 5.446 7.892 4.01 6 .606-1.313-1.637-3.377-.31-2.62 1.202-2.152-1-.444-4.894 2.572-3.904 1.048.345 2.016 1.19 2.426 2.252.272.704.327 1.422.204 2.1 1.87-.84 5.37-.068 5.357 3.843-1.62-1.873-3.014-1.68-4.468-1.333-1.414.34-2.484.808-4.908 1.16-1.76.256-3.93-.608-4.907-2.285.233 1.103-.25 1.79-.927 2.36V5.97c0-2.754 2.205-4.917 4.716-5.25 8.12-1.077 9.184 6.267 15.654 9.564 1.366.696 2.794.735 4.78 1.006" filter="url(#a)"/><path d="M622.85 1.742C624.09.922 625.464.667 626.56.7c3.61.11 6.234 4.487 9.125 7.425-.155-.88.366-1.392 1.167-1.723.296 3.195 3.113 5.16 6.357 4.444 1.757-.387 3.604-1.862 3.517-4.134-.21-5.446-7.892-4.01-6-.606 1.313 1.637 3.377.31 2.62-1.2 2.152.997.444 4.893-2.572 3.902-1.048-.345-2.016-1.19-2.426-2.252-.272-.704-.327-1.422-.204-2.1-1.87.84-5.37.068-5.357-3.843 1.62 1.872 3.014 1.68 4.468 1.332 1.414-.34 2.484-.808 4.908-1.16 1.76-.255 3.93.608 4.907 2.285-.233-1.103.25-1.79.927-2.36V7.06c0 2.754-2.205 4.917-4.716 5.25-8.12 1.078-9.184-6.267-15.654-9.564-1.366-.696-2.794-.735-4.78-1.006M601.15 1.742C599.91.922 598.536.667 597.44.7c-3.61.11-6.234 4.487-9.125 7.425.155-.88-.366-1.392-1.167-1.723-.296 3.195-3.113 5.16-6.357 4.444-1.758-.387-3.604-1.862-3.517-4.134.21-5.446 7.892-4.01 6-.606-1.313 1.637-3.377.31-2.62-1.2-2.152.997-.444 4.893 2.572 3.902 1.048-.345 2.016-1.19 2.426-2.252.272-.704.327-1.422.204-2.1 1.87.84 5.37.068 5.357-3.843-1.62 1.872-3.014 1.68-4.468 1.332-1.414-.34-2.484-.808-4.908-1.16-1.76-.255-3.93.608-4.907 2.285.233-1.103-.25-1.79-.927-2.36V7.06c0 2.754 2.205 4.917 4.716 5.25 8.12 1.078 9.184-6.267 15.654-9.564 1.366-.696 2.794-.735 4.78-1.006" filter="url(#a)"/><path d="M586.85 11.29c1.238.82 2.613 1.075 3.71 1.042 3.61-.11 6.234-4.486 9.125-7.425-.155.88.366 1.392 1.167 1.723.296-3.195 3.113-5.158 6.357-4.444 1.757.387 3.604 1.863 3.517 4.134-.21 5.446-7.892 4.01-6 .606 1.313-1.637 3.377-.31 2.62 1.202 2.152-1 .444-4.894-2.572-3.904-1.048.345-2.016 1.19-2.426 2.252-.272.704-.327 1.422-.204 2.1-1.87-.84-5.37-.068-5.357 3.843 1.62-1.873 3.014-1.68 4.468-1.333 1.414.34 2.484.808 4.908 1.16 1.76.256 3.93-.608 4.907-2.285-.233 1.103.25 1.79.927 2.36V5.97c0-2.754-2.205-4.917-4.716-5.25-8.12-1.077-9.184 6.267-15.654 9.564-1.366.696-2.794.735-4.78 1.006M565.15 11.29c-1.238.82-2.613 1.075-3.71 1.042-3.61-.11-6.234-4.486-9.125-7.425.155.88-.366 1.392-1.167 1.723-.296-3.195-3.113-5.158-6.357-4.444-1.758.387-3.604 1.863-3.517 4.134.21 5.446 7.892 4.01 6 .606-1.313-1.637-3.377-.31-2.62 1.202-2.152-1-.444-4.894 2.572-3.904 1.048.345 2.016 1.19 2.426 2.252.272.704.327 1.422.204 2.1 1.87-.84 5.37-.068 5.357 3.843-1.62-1.873-3.014-1.68-4.468-1.333-1.414.34-2.484.808-4.908 1.16-1.76.256-3.93-.608-4.907-2.285.233 1.103-.25 1.79-.927 2.36V5.97c0-2.754 2.205-4.917 4.716-5.25 8.12-1.077 9.184 6.267 15.654 9.564 1.366.696 2.794.735 4.78 1.006" filter="url(#a)"/><path d="M550.85 1.742C552.09.922 553.464.667 554.56.7c3.61.11 6.234 4.487 9.125 7.425-.155-.88.366-1.392 1.167-1.723.296 3.195 3.113 5.16 6.357 4.444 1.757-.387 3.604-1.862 3.517-4.134-.21-5.446-7.892-4.01-6-.606 1.313 1.637 3.377.31 2.62-1.2 2.152.997.444 4.893-2.572 3.902-1.048-.345-2.016-1.19-2.426-2.252-.272-.704-.327-1.422-.204-2.1-1.87.84-5.37.068-5.357-3.843 1.62 1.872 3.014 1.68 4.468 1.332 1.414-.34 2.484-.808 4.908-1.16 1.76-.255 3.93.608 4.907 2.285-.233-1.103.25-1.79.927-2.36V7.06c0 2.754-2.205 4.917-4.716 5.25-8.12 1.078-9.184-6.267-15.654-9.564-1.366-.696-2.794-.735-4.78-1.006M529.15 1.742C527.91.922 526.536.667 525.44.7c-3.61.11-6.234 4.487-9.125 7.425.155-.88-.366-1.392-1.167-1.723-.296 3.195-3.113 5.16-6.357 4.444-1.758-.387-3.604-1.862-3.517-4.134.21-5.446 7.892-4.01 6-.606-1.313 1.637-3.377.31-2.62-1.2-2.152.997-.444 4.893 2.572 3.902 1.048-.345 2.016-1.19 2.426-2.252.272-.704.327-1.422.204-2.1 1.87.84 5.37.068 5.357-3.843-1.62 1.872-3.014 1.68-4.468 1.332-1.414-.34-2.484-.808-4.908-1.16-1.76-.255-3.93.608-4.907 2.285.233-1.103-.25-1.79-.927-2.36V7.06c0 2.754 2.204 4.917 4.716 5.25 8.12 1.078 9.184-6.267 15.654-9.564 1.366-.696 2.794-.735 4.78-1.006" filter="url(#a)"/><path d="M514.85 11.29c1.238.82 2.613 1.075 3.71 1.042 3.61-.11 6.234-4.486 9.125-7.425-.155.88.366 1.392 1.167 1.723.296-3.195 3.113-5.158 6.357-4.444 1.757.387 3.604 1.863 3.517 4.134-.21 5.446-7.892 4.01-6 .606 1.313-1.637 3.377-.31 2.62 1.202 2.152-1 .444-4.894-2.572-3.904-1.048.345-2.016 1.19-2.426 2.252-.272.704-.327 1.422-.204 2.1-1.87-.84-5.37-.068-5.357 3.843 1.62-1.873 3.014-1.68 4.468-1.333 1.414.34 2.484.808 4.908 1.16 1.76.256 3.93-.608 4.907-2.285-.233 1.103.25 1.79.927 2.36V5.97c0-2.754-2.205-4.917-4.716-5.25-8.12-1.077-9.184 6.267-15.654 9.564-1.366.696-2.794.735-4.78 1.006M493.15 11.29c-1.238.82-2.613 1.075-3.71 1.042-3.61-.11-6.234-4.486-9.125-7.425.155.88-.366 1.392-1.167 1.723-.296-3.195-3.113-5.158-6.357-4.444-1.758.387-3.604 1.863-3.517 4.134.21 5.446 7.892 4.01 6 .606-1.313-1.637-3.377-.31-2.62 1.202-2.152-1-.444-4.894 2.572-3.904 1.048.345 2.016 1.19 2.426 2.252.272.704.327 1.422.204 2.1 1.87-.84 5.37-.068 5.357 3.843-1.62-1.873-3.014-1.68-4.468-1.333-1.414.34-2.484.808-4.908 1.16-1.76.256-3.93-.608-4.907-2.285.233 1.103-.25 1.79-.927 2.36V5.97c0-2.754 2.204-4.917 4.716-5.25 8.12-1.077 9.184 6.267 15.654 9.564 1.366.696 2.794.735 4.78 1.006" filter="url(#a)"/><path d="M478.85 1.742C480.09.922 481.464.667 482.56.7c3.61.11 6.234 4.487 9.125 7.425-.155-.88.366-1.392 1.167-1.723.296 3.195 3.113 5.16 6.357 4.444 1.757-.387 3.604-1.862 3.517-4.134-.21-5.446-7.892-4.01-6-.606 1.313 1.637 3.377.31 2.62-1.2 2.152.997.444 4.893-2.572 3.902-1.048-.345-2.016-1.19-2.426-2.252-.272-.704-.327-1.422-.204-2.1-1.87.84-5.37.068-5.357-3.843 1.62 1.872 3.014 1.68 4.468 1.332 1.414-.34 2.484-.808 4.908-1.16 1.76-.255 3.93.608 4.907 2.285-.233-1.103.25-1.79.927-2.36V7.06c0 2.754-2.205 4.917-4.716 5.25-8.12 1.078-9.184-6.267-15.654-9.564-1.366-.696-2.794-.735-4.78-1.006M457.15 1.742C455.91.922 454.536.667 453.44.7c-3.61.11-6.234 4.487-9.125 7.425.155-.88-.366-1.392-1.167-1.723-.296 3.195-3.113 5.16-6.357 4.444-1.758-.387-3.604-1.862-3.517-4.134.21-5.446 7.892-4.01 6-.606-1.313 1.637-3.377.31-2.62-1.2-2.152.997-.444 4.893 2.572 3.902 1.048-.345 2.016-1.19 2.426-2.252.272-.704.327-1.422.204-2.1 1.87.84 5.37.068 5.357-3.843-1.62 1.872-3.014 1.68-4.468 1.332-1.414-.34-2.484-.808-4.908-1.16-1.76-.255-3.93.608-4.907 2.285.233-1.103-.25-1.79-.927-2.36V7.06c0 2.754 2.204 4.917 4.716 5.25 8.12 1.078 9.184-6.267 15.654-9.564 1.366-.696 2.794-.735 4.78-1.006" filter="url(#a)"/><path d="M442.85 11.29c1.238.82 2.613 1.075 3.71 1.042 3.61-.11 6.234-4.486 9.125-7.425-.155.88.366 1.392 1.167 1.723.296-3.195 3.113-5.158 6.357-4.444 1.757.387 3.604 1.863 3.517 4.134-.21 5.446-7.892 4.01-6 .606 1.313-1.637 3.377-.31 2.62 1.202 2.152-1 .444-4.894-2.572-3.904-1.048.345-2.016 1.19-2.426 2.252-.272.704-.327 1.422-.204 2.1-1.87-.84-5.37-.068-5.357 3.843 1.62-1.873 3.014-1.68 4.468-1.333 1.414.34 2.484.808 4.908 1.16 1.76.256 3.93-.608 4.907-2.285-.233 1.103.25 1.79.927 2.36V5.97c0-2.754-2.205-4.917-4.716-5.25-8.12-1.077-9.184 6.267-15.654 9.564-1.366.696-2.794.735-4.78 1.006M421.15 11.29c-1.238.82-2.613 1.075-3.71 1.042-3.61-.11-6.234-4.486-9.125-7.425.155.88-.366 1.392-1.167 1.723-.296-3.195-3.113-5.158-6.357-4.444-1.758.387-3.604 1.863-3.517 4.134.21 5.446 7.892 4.01 6 .606-1.313-1.637-3.377-.31-2.62 1.202-2.152-1-.444-4.894 2.572-3.904 1.048.345 2.016 1.19 2.426 2.252.272.704.327 1.422.204 2.1 1.87-.84 5.37-.068 5.357 3.843-1.62-1.873-3.014-1.68-4.468-1.333-1.414.34-2.484.808-4.908 1.16-1.76.256-3.93-.608-4.907-2.285.233 1.103-.25 1.79-.927 2.36V5.97c0-2.754 2.204-4.917 4.716-5.25 8.12-1.077 9.184 6.267 15.654 9.564 1.366.696 2.794.735 4.78 1.006" filter="url(#a)"/><path d="M406.85 1.742C408.09.922 409.464.667 410.56.7c3.61.11 6.234 4.487 9.125 7.425-.155-.88.366-1.392 1.167-1.723.296 3.195 3.113 5.16 6.357 4.444 1.757-.387 3.604-1.862 3.517-4.134-.21-5.446-7.892-4.01-6-.606 1.313 1.637 3.377.31 2.62-1.2 2.152.997.444 4.893-2.572 3.902-1.048-.345-2.016-1.19-2.426-2.252-.272-.704-.327-1.422-.204-2.1-1.87.84-5.37.068-5.357-3.843 1.62 1.872 3.014 1.68 4.468 1.332 1.414-.34 2.484-.808 4.908-1.16 1.76-.255 3.93.608 4.907 2.285-.233-1.103.25-1.79.927-2.36V7.06c0 2.754-2.204 4.917-4.716 5.25-8.12 1.078-9.184-6.267-15.654-9.564-1.366-.696-2.794-.735-4.78-1.006M385.15 1.742C383.91.922 382.536.667 381.44.7c-3.61.11-6.234 4.487-9.125 7.425.155-.88-.366-1.392-1.167-1.723-.296 3.195-3.113 5.16-6.357 4.444-1.758-.387-3.604-1.862-3.517-4.134.21-5.446 7.892-4.01 6-.606-1.313 1.637-3.377.31-2.62-1.2-2.152.997-.444 4.893 2.572 3.902 1.048-.345 2.016-1.19 2.426-2.252.272-.704.327-1.422.204-2.1 1.87.84 5.37.068 5.357-3.843-1.62 1.872-3.014 1.68-4.468 1.332-1.414-.34-2.484-.808-4.908-1.16-1.76-.255-3.93.608-4.907 2.285.233-1.103-.25-1.79-.927-2.36V7.06c0 2.754 2.204 4.917 4.716 5.25 8.12 1.078 9.184-6.267 15.654-9.564 1.366-.696 2.794-.735 4.78-1.006" filter="url(#a)"/><path d="M370.85 11.29c1.238.82 2.613 1.075 3.71 1.042 3.61-.11 6.234-4.486 9.125-7.425-.155.88.366 1.392 1.167 1.723.296-3.195 3.113-5.158 6.357-4.444 1.757.387 3.604 1.863 3.517 4.134-.21 5.446-7.892 4.01-6 .606 1.313-1.637 3.377-.31 2.62 1.202 2.152-1 .444-4.894-2.572-3.904-1.048.345-2.016 1.19-2.426 2.252-.272.704-.327 1.422-.204 2.1-1.87-.84-5.37-.068-5.357 3.843 1.62-1.873 3.014-1.68 4.468-1.333 1.414.34 2.484.808 4.908 1.16 1.76.256 3.93-.608 4.907-2.285-.233 1.103.25 1.79.927 2.36V5.97c0-2.754-2.205-4.917-4.716-5.25-8.12-1.077-9.184 6.267-15.654 9.564-1.366.696-2.794.735-4.78 1.006M349.15 11.29c-1.238.82-2.613 1.075-3.71 1.042-3.61-.11-6.234-4.486-9.125-7.425.155.88-.366 1.392-1.167 1.723-.296-3.195-3.113-5.158-6.357-4.444-1.758.387-3.604 1.863-3.517 4.134.21 5.446 7.892 4.01 6 .606-1.313-1.637-3.377-.31-2.62 1.202-2.152-1-.444-4.894 2.572-3.904 1.048.345 2.016 1.19 2.426 2.252.272.704.327 1.422.204 2.1 1.87-.84 5.37-.068 5.357 3.843-1.62-1.873-3.014-1.68-4.468-1.333-1.414.34-2.484.808-4.908 1.16-1.76.256-3.93-.608-4.907-2.285.233 1.103-.25 1.79-.927 2.36V5.97c0-2.754 2.204-4.917 4.716-5.25 8.12-1.077 9.184 6.267 15.654 9.564 1.366.696 2.794.735 4.78 1.006" filter="url(#a)"/><path d="M334.85 1.742C336.09.922 337.464.667 338.56.7c3.61.11 6.234 4.487 9.125 7.425-.155-.88.366-1.392 1.167-1.723.296 3.195 3.113 5.16 6.357 4.444 1.757-.387 3.604-1.862 3.517-4.134-.21-5.446-7.892-4.01-6-.606 1.313 1.637 3.377.31 2.62-1.2 2.152.997.444 4.893-2.572 3.902-1.048-.345-2.016-1.19-2.426-2.252-.272-.704-.327-1.422-.204-2.1-1.87.84-5.37.068-5.357-3.843 1.62 1.872 3.014 1.68 4.468 1.332 1.414-.34 2.484-.808 4.908-1.16 1.76-.255 3.93.608 4.907 2.285-.233-1.103.25-1.79.927-2.36V7.06c0 2.754-2.205 4.917-4.716 5.25-8.12 1.078-9.184-6.267-15.654-9.564-1.366-.696-2.794-.735-4.78-1.006M313.15 1.742C311.91.922 310.536.667 309.44.7c-3.61.11-6.234 4.487-9.125 7.425.155-.88-.366-1.392-1.167-1.723-.296 3.195-3.113 5.16-6.357 4.444-1.758-.387-3.604-1.862-3.517-4.134.21-5.446 7.892-4.01 6-.606-1.313 1.637-3.377.31-2.62-1.2-2.152.997-.444 4.893 2.572 3.902 1.048-.345 2.016-1.19 2.426-2.252.272-.704.327-1.422.204-2.1 1.87.84 5.37.068 5.357-3.843-1.62 1.872-3.014 1.68-4.468 1.332-1.414-.34-2.484-.808-4.908-1.16-1.76-.255-3.93.608-4.907 2.285.233-1.103-.25-1.79-.927-2.36V7.06c0 2.754 2.204 4.917 4.716 5.25 8.12 1.078 9.184-6.267 15.654-9.564 1.366-.696 2.794-.735 4.78-1.006" filter="url(#a)"/><path d="M298.85 11.29c1.238.82 2.613 1.075 3.71 1.042 3.61-.11 6.234-4.486 9.125-7.425-.155.88.366 1.392 1.167 1.723.296-3.195 3.113-5.158 6.357-4.444 1.757.387 3.604 1.863 3.517 4.134-.21 5.446-7.892 4.01-6 .606 1.313-1.637 3.377-.31 2.62 1.202 2.152-1 .444-4.894-2.572-3.904-1.048.345-2.016 1.19-2.426 2.252-.272.704-.327 1.422-.204 2.1-1.87-.84-5.37-.068-5.357 3.843 1.62-1.873 3.014-1.68 4.468-1.333 1.414.34 2.484.808 4.908 1.16 1.76.256 3.93-.608 4.907-2.285-.233 1.103.25 1.79.927 2.36V5.97c0-2.754-2.205-4.917-4.716-5.25-8.12-1.077-9.184 6.267-15.654 9.564-1.366.696-2.794.735-4.78 1.006M277.15 11.29c-1.238.82-2.613 1.075-3.71 1.042-3.61-.11-6.234-4.486-9.125-7.425.155.88-.366 1.392-1.167 1.723-.296-3.195-3.113-5.158-6.357-4.444-1.758.387-3.604 1.863-3.517 4.134.21 5.446 7.892 4.01 6 .606-1.313-1.637-3.377-.31-2.62 1.202-2.152-1-.444-4.894 2.572-3.904 1.048.345 2.016 1.19 2.426 2.252.272.704.327 1.422.204 2.1 1.87-.84 5.37-.068 5.357 3.843-1.62-1.873-3.014-1.68-4.468-1.333-1.414.34-2.484.808-4.908 1.16-1.76.256-3.93-.608-4.907-2.285.233 1.103-.25 1.79-.927 2.36V5.97c0-2.754 2.204-4.917 4.716-5.25 8.12-1.077 9.184 6.267 15.654 9.564 1.366.696 2.794.735 4.78 1.006" filter="url(#a)"/><path d="M262.85 1.742C264.09.922 265.464.667 266.56.7c3.61.11 6.234 4.487 9.125 7.425-.155-.88.366-1.392 1.167-1.723.296 3.195 3.113 5.16 6.357 4.444 1.757-.387 3.604-1.862 3.517-4.134-.21-5.446-7.892-4.01-6-.606 1.313 1.637 3.377.31 2.62-1.2 2.152.997.444 4.893-2.572 3.902-1.048-.345-2.016-1.19-2.426-2.252-.272-.704-.327-1.422-.204-2.1-1.87.84-5.37.068-5.357-3.843 1.62 1.872 3.014 1.68 4.468 1.332 1.414-.34 2.484-.808 4.908-1.16 1.76-.255 3.93.608 4.907 2.285-.233-1.103.25-1.79.927-2.36V7.06c0 2.754-2.205 4.917-4.716 5.25-8.12 1.078-9.184-6.267-15.654-9.564-1.366-.696-2.794-.735-4.78-1.006M241.15 1.742C239.91.922 238.536.667 237.44.7c-3.61.11-6.234 4.487-9.125 7.425.155-.88-.366-1.392-1.167-1.723-.296 3.195-3.113 5.16-6.357 4.444-1.758-.387-3.604-1.862-3.517-4.134.21-5.446 7.892-4.01 6-.606-1.313 1.637-3.377.31-2.62-1.2-2.152.997-.444 4.893 2.572 3.902 1.048-.345 2.016-1.19 2.426-2.252.272-.704.327-1.422.204-2.1 1.87.84 5.37.068 5.357-3.843-1.62 1.872-3.014 1.68-4.468 1.332-1.414-.34-2.484-.808-4.908-1.16-1.76-.255-3.93.608-4.907 2.285.233-1.103-.25-1.79-.927-2.36V7.06c0 2.754 2.204 4.917 4.716 5.25 8.12 1.078 9.184-6.267 15.654-9.564 1.366-.696 2.794-.735 4.78-1.006" filter="url(#a)"/><path d="M226.85 11.29c1.238.82 2.613 1.075 3.71 1.042 3.61-.11 6.234-4.486 9.125-7.425-.155.88.366 1.392 1.167 1.723.296-3.195 3.113-5.158 6.357-4.444 1.757.387 3.604 1.863 3.517 4.134-.21 5.446-7.892 4.01-6 .606 1.313-1.637 3.377-.31 2.62 1.202 2.152-1 .444-4.894-2.572-3.904-1.048.345-2.016 1.19-2.426 2.252-.272.704-.327 1.422-.204 2.1-1.87-.84-5.37-.068-5.357 3.843 1.62-1.873 3.014-1.68 4.468-1.333 1.414.34 2.484.808 4.908 1.16 1.76.256 3.93-.608 4.907-2.285-.233 1.103.25 1.79.927 2.36V5.97c0-2.754-2.205-4.917-4.716-5.25-8.12-1.077-9.184 6.267-15.654 9.564-1.366.696-2.794.735-4.78 1.006M205.15 11.29c-1.238.82-2.613 1.075-3.71 1.042-3.61-.11-6.234-4.486-9.125-7.425.155.88-.366 1.392-1.167 1.723-.296-3.195-3.113-5.158-6.357-4.444-1.758.387-3.604 1.863-3.517 4.134.21 5.446 7.892 4.01 6 .606-1.313-1.637-3.377-.31-2.62 1.202-2.152-1-.444-4.894 2.572-3.904 1.048.345 2.016 1.19 2.426 2.252.272.704.327 1.422.204 2.1 1.87-.84 5.37-.068 5.357 3.843-1.62-1.873-3.014-1.68-4.468-1.333-1.414.34-2.484.808-4.908 1.16-1.76.256-3.93-.608-4.907-2.285.233 1.103-.25 1.79-.927 2.36V5.97c0-2.754 2.204-4.917 4.716-5.25 8.12-1.077 9.184 6.267 15.654 9.564 1.366.696 2.794.735 4.78 1.006" filter="url(#a)"/><path d="M190.85 1.742C192.09.922 193.464.667 194.56.7c3.61.11 6.234 4.487 9.125 7.425-.155-.88.366-1.392 1.167-1.723.296 3.195 3.113 5.16 6.357 4.444 1.757-.387 3.604-1.862 3.517-4.134-.21-5.446-7.892-4.01-6-.606 1.313 1.637 3.377.31 2.62-1.2 2.152.997.443 4.893-2.572 3.902-1.048-.345-2.016-1.19-2.426-2.252-.272-.704-.327-1.422-.204-2.1-1.87.84-5.37.068-5.357-3.843 1.62 1.872 3.014 1.68 4.468 1.332 1.414-.34 2.484-.808 4.908-1.16 1.76-.255 3.93.608 4.907 2.285-.233-1.103.25-1.79.927-2.36V7.06c0 2.754-2.205 4.917-4.716 5.25-8.12 1.078-9.184-6.267-15.654-9.564-1.366-.696-2.794-.735-4.78-1.006M169.15 1.742C167.91.922 166.536.667 165.44.7c-3.61.11-6.234 4.487-9.125 7.425.155-.88-.366-1.392-1.167-1.723-.296 3.195-3.113 5.16-6.357 4.444-1.758-.387-3.604-1.862-3.517-4.134.21-5.446 7.892-4.01 6-.606-1.313 1.637-3.377.31-2.62-1.2-2.152.997-.444 4.893 2.572 3.902 1.048-.345 2.016-1.19 2.426-2.252.272-.704.327-1.422.204-2.1 1.87.84 5.37.068 5.357-3.843-1.62 1.872-3.014 1.68-4.468 1.332-1.414-.34-2.484-.808-4.908-1.16-1.76-.255-3.93.608-4.907 2.285.233-1.103-.25-1.79-.927-2.36V7.06c0 2.754 2.204 4.917 4.716 5.25 8.12 1.078 9.184-6.267 15.654-9.564 1.366-.696 2.794-.735 4.78-1.006" filter="url(#a)"/><path d="M154.85 11.29c1.238.82 2.613 1.075 3.71 1.042 3.61-.11 6.234-4.486 9.125-7.425-.155.88.366 1.392 1.167 1.723.296-3.195 3.113-5.158 6.357-4.444 1.757.387 3.604 1.863 3.517 4.134-.21 5.446-7.892 4.01-6 .606 1.313-1.637 3.377-.31 2.62 1.202 2.152-1 .443-4.894-2.572-3.904-1.048.345-2.016 1.19-2.426 2.252-.272.704-.327 1.422-.204 2.1-1.87-.84-5.37-.068-5.357 3.843 1.62-1.873 3.014-1.68 4.468-1.333 1.414.34 2.484.808 4.908 1.16 1.76.256 3.93-.608 4.907-2.285-.233 1.103.25 1.79.927 2.36V5.97c0-2.754-2.205-4.917-4.716-5.25-8.12-1.077-9.184 6.267-15.654 9.564-1.366.696-2.794.735-4.78 1.006M133.15 11.29c-1.238.82-2.613 1.075-3.71 1.042-3.61-.11-6.234-4.486-9.125-7.425.155.88-.366 1.392-1.167 1.723-.296-3.195-3.113-5.158-6.357-4.444-1.758.387-3.604 1.863-3.517 4.134.21 5.446 7.892 4.01 6 .606-1.313-1.637-3.377-.31-2.62 1.202-2.152-1-.444-4.894 2.572-3.904 1.048.345 2.016 1.19 2.426 2.252.272.704.327 1.422.204 2.1 1.87-.84 5.37-.068 5.357 3.843-1.62-1.873-3.014-1.68-4.468-1.333-1.414.34-2.484.808-4.908 1.16-1.76.256-3.93-.608-4.907-2.285.233 1.103-.25 1.79-.927 2.36V5.97c0-2.754 2.204-4.917 4.716-5.25 8.12-1.077 9.184 6.267 15.654 9.564 1.366.696 2.794.735 4.78 1.006" filter="url(#a)"/><path d="M118.85 1.742C120.09.922 121.464.667 122.56.7c3.61.11 6.234 4.487 9.125 7.425-.155-.88.366-1.392 1.167-1.723.296 3.195 3.113 5.16 6.357 4.444 1.757-.387 3.604-1.862 3.517-4.134-.21-5.446-7.892-4.01-6-.606 1.313 1.637 3.377.31 2.62-1.2 2.152.997.443 4.893-2.572 3.902-1.048-.345-2.016-1.19-2.426-2.252-.272-.704-.327-1.422-.204-2.1-1.87.84-5.37.068-5.357-3.843 1.62 1.872 3.014 1.68 4.468 1.332 1.414-.34 2.484-.808 4.908-1.16 1.76-.255 3.93.608 4.907 2.285-.233-1.103.25-1.79.927-2.36V7.06c0 2.754-2.205 4.917-4.716 5.25-8.12 1.078-9.184-6.267-15.654-9.564-1.366-.696-2.794-.735-4.78-1.006M97.15 1.742C95.91.922 94.536.667 93.44.7c-3.61.11-6.234 4.487-9.125 7.425.155-.88-.366-1.392-1.167-1.723-.296 3.195-3.113 5.16-6.357 4.444-1.758-.387-3.604-1.862-3.517-4.134.21-5.446 7.892-4.01 6-.606-1.313 1.637-3.377.31-2.62-1.2-2.152.997-.444 4.893 2.572 3.902 1.048-.345 2.016-1.19 2.426-2.252.272-.704.327-1.422.204-2.1 1.87.84 5.37.068 5.357-3.843-1.62 1.872-3.014 1.68-4.468 1.332-1.414-.34-2.484-.808-4.908-1.16-1.76-.255-3.93.608-4.907 2.285.233-1.103-.25-1.79-.927-2.36V7.06c0 2.754 2.204 4.917 4.716 5.25 8.12 1.078 9.184-6.267 15.654-9.564 1.366-.696 2.794-.735 4.78-1.006" filter="url(#a)"/><path d="M82.85 11.29c1.238.82 2.613 1.075 3.71 1.042 3.61-.11 6.234-4.486 9.125-7.425-.155.88.366 1.392 1.167 1.723.296-3.195 3.113-5.158 6.357-4.444 1.757.387 3.604 1.863 3.517 4.134-.21 5.446-7.892 4.01-6 .606 1.313-1.637 3.377-.31 2.62 1.202 2.152-1 .444-4.894-2.572-3.904-1.048.345-2.016 1.19-2.426 2.252-.272.704-.327 1.422-.204 2.1-1.87-.84-5.37-.068-5.357 3.843 1.62-1.873 3.014-1.68 4.468-1.333 1.414.34 2.484.808 4.908 1.16 1.76.256 3.93-.608 4.907-2.285-.233 1.103.25 1.79.927 2.36V5.97c0-2.754-2.205-4.917-4.716-5.25-8.12-1.077-9.184 6.267-15.654 9.564-1.366.696-2.794.735-4.78 1.006M61.15 11.29c-1.238.82-2.613 1.075-3.71 1.042-3.61-.11-6.234-4.486-9.125-7.425.155.88-.366 1.392-1.167 1.723-.296-3.195-3.113-5.158-6.357-4.444-1.758.387-3.604 1.863-3.517 4.134.21 5.446 7.892 4.01 6 .606-1.313-1.637-3.377-.31-2.62 1.202-2.152-1-.444-4.894 2.572-3.904 1.048.345 2.016 1.19 2.426 2.252.272.704.327 1.422.204 2.1 1.87-.84 5.37-.068 5.357 3.843-1.62-1.873-3.014-1.68-4.468-1.333-1.414.34-2.484.808-4.908 1.16-1.76.256-3.93-.608-4.907-2.285.233 1.103-.25 1.79-.927 2.36V5.97c0-2.754 2.204-4.917 4.716-5.25 8.12-1.077 9.184 6.267 15.654 9.564 1.366.696 2.794.735 4.78 1.006" filter="url(#a)"/><path d="M46.85 1.742C48.09.922 49.464.667 50.56.7c3.61.11 6.234 4.487 9.125 7.425-.155-.88.366-1.392 1.167-1.723.296 3.195 3.113 5.16 6.357 4.444 1.757-.387 3.604-1.862 3.517-4.134-.21-5.446-7.892-4.01-6-.606 1.313 1.637 3.377.31 2.62-1.2 2.152.997.444 4.893-2.572 3.902-1.048-.345-2.016-1.19-2.426-2.252-.272-.704-.327-1.422-.204-2.1-1.87.84-5.37.068-5.357-3.843 1.62 1.872 3.014 1.68 4.468 1.332 1.414-.34 2.484-.808 4.908-1.16 1.76-.255 3.93.608 4.907 2.285-.233-1.103.25-1.79.927-2.36V7.06c0 2.754-2.205 4.917-4.716 5.25-8.12 1.078-9.184-6.267-15.654-9.564-1.366-.696-2.794-.735-4.78-1.006M25.15 1.742C23.91.922 22.536.667 21.44.7c-3.61.11-6.234 4.487-9.125 7.425.155-.88-.366-1.392-1.167-1.723-.296 3.195-3.113 5.16-6.357 4.444-1.758-.387-3.604-1.862-3.517-4.134.21-5.446 7.892-4.01 6-.606-1.313 1.637-3.377.31-2.62-1.2-2.152.997-.444 4.893 2.572 3.902 1.048-.345 2.016-1.19 2.426-2.252.272-.704.327-1.422.204-2.1 1.87.84 5.37.068 5.357-3.843-1.62 1.872-3.014 1.68-4.468 1.332-1.414-.34-2.484-.808-4.908-1.16C4.074.53 1.904 1.393.927 3.07 1.16 1.967.677 1.28 0 .71V7.06c0 2.754 2.204 4.917 4.716 5.25 8.12 1.078 9.184-6.267 15.654-9.564 1.366-.696 2.794-.735 4.78-1.006" filter="url(#a)"/><path d="M10.85 11.29c1.238.82 2.613 1.075 3.71 1.042 3.61-.11 6.234-4.486 9.125-7.425-.155.88.366 1.392 1.167 1.723.296-3.195 3.113-5.158 6.357-4.444 1.757.387 3.604 1.863 3.517 4.134-.21 5.446-7.892 4.01-6 .606 1.313-1.637 3.377-.31 2.62 1.202 2.152-1 .444-4.894-2.572-3.904-1.048.345-2.016 1.19-2.426 2.252-.272.704-.327 1.422-.204 2.1-1.87-.84-5.37-.068-5.357 3.843 1.62-1.873 3.014-1.68 4.468-1.333 1.414.34 2.484.808 4.908 1.16 1.76.256 3.93-.608 4.907-2.285-.233 1.103.25 1.79.927 2.36V5.97c0-2.754-2.205-4.917-4.716-5.25-8.12-1.077-9.184 6.267-15.654 9.564-1.366.696-2.794.735-4.78 1.006" filter="url(#a)"/></g><filter id="a" x="-20%" y="-20%" width="140%" height="140%"><feGaussianBlur in="SourceAlpha" result="blur-out" stdDeviation="1"/><feOffset in="blur-out" result="the-shadow" dx="1" dy="1"/><feColorMatrix in="the-shadow" result="color-out" values="0 0 0 0 0 0 0 0 0 0 0 0 0 0 0 0 0 0 .2 0"/><feBlend in="SourceGraphic" in2="color-out"/></filter></svg>